<svg xmlns="http://www.w3.org/2000/svg" viewBox="0 0 574 574"><path fill="#fff" fill-rule="evenodd" d="m519.21 355.66-21.4 42.75-56.27 2.07-8.02.3.16 5.2L345.9 511.3a8 8.6 0 0 0 .63 12.14 8 8.6 0 0 0 4.85 2.03v.13h.85a8 8.6 0 0 0 .12 0h68.68v-.38l.33.37 5.73-6.05 29-30.63.19-.24c5.97-7.32 24.3-29.66 41.63-54.67 17.33-25 34.17-51.36 36.36-73.36zm-29.13 60.3c-1.16 1.75-2.28 3.52-3.42 5.28-.17-.28-.46-.45-.9-.4-4.5 1.89-8.69 4.49-13.22 6.13a114.41 114.41 0 0 1-41.6 8.07l14.54-17.45z"/><ellipse cx="431.1" cy="331.28" fill="none" stroke="#fff" stroke-linecap="round" stroke-linejoin="round" stroke-width="61.75" rx="78.09" ry="73.64"/><path fill="none" stroke="#fff" stroke-linecap="square" stroke-linejoin="bevel" stroke-width="12.96" d="M109.24 317.88h26.09v152.97h-26.09z"/><path fill="none" stroke="#fff" stroke-linecap="round" stroke-width="13.17" d="m69.74 277.91 118.3-1.2"/><path fill="#fff" fill-rule="evenodd" stroke="#fff" stroke-linecap="square" stroke-linejoin="round" stroke-width="4.17" d="M52.22 276.34c-15.01 8.91-22.64 25.7-22.09 35.89 10.57-26.18 24.03-32.44 24.03-32.44"/><path fill="none" stroke="#fff" stroke-linecap="round" stroke-width="13.29" d="m56.39 298.62 132.58-1.1"/><path fill="none" stroke="#fff" stroke-linecap="square" stroke-linejoin="bevel" stroke-width="11.49" d="M256.7 495.36V150.19"/><path fill="none" stroke="#fff" stroke-linecap="round" stroke-linejoin="bevel" stroke-width="15.14" d="M230.32 129.29h54.01v389h-54.01z"/><path fill="#fff" fill-rule="evenodd" stroke="#fff" stroke-linecap="square" stroke-linejoin="round" stroke-width="8" d="M67.5 63.52c-28.06 17.55-42.33 50.59-41.3 70.67 19.77-51.56 44.94-63.88 44.94-63.88"/><path fill="none" stroke="#fff" stroke-linecap="round" stroke-width="13" d="M508.9 68.62c17.14 12.4 37.43 42.14 41.04 64.23 3.3 20.26 1.62 29.38.51 49.17M74.17 103.94l379.8-.37s24.2 2.09 45.33 16.24c7.19 4.8 18.91 13.67 25.92 23.35 4.37 6.03 11.23 12.86 25.13 39.24"/><path fill="#fff" fill-rule="evenodd" stroke="#fff" stroke-linecap="square" d="m538.5 173.29 14.94 38.62s.55-.46 2.37-6.12c1.35-4.18.88-14.94.88-14.94s-.13-11.06 0-8.44c.14 3-18.19-9.12-18.19-9.12z"/><path fill="none" stroke="#fff" stroke-linecap="round" stroke-width="13" d="m94.86 82.16 333.86-.41"/><path fill="none" stroke="#fff" stroke-linecap="round" stroke-width="13.01" d="m111.5 59.82 344.64-.4"/></svg>